<svg
  xmlns="http://www.w3.org/2000/svg"
  xmlns:xlink="http://www.w3.org/1999/xlink"
  fill="none"
  version="1.1"
  width="315"
  height="315"
  viewBox="0 0 315 315"
>
  <g style="mix-blend-mode: passthrough">
    <g>
      <g style="mix-blend-mode: passthrough">
        <path
          d="M157.5,0C244.485,0,315,70.5151,315,157.5C315,244.485,244.485,315,157.5,315C70.5151,315,0,244.485,0,157.5C0,70.5151,70.5151,0,157.5,0"
          fill="#FFDCDC"
          fill-opacity="1"
        />
      </g>
      <g style="mix-blend-mode: passthrough">
        <path
          d="M137.57760000000002,95L162.4499,180.92520000000002L209.598,95L257,95L238.925,232L198.345,232L209.598,159.8714L173.702,222.798L137.57760000000002,222.798L119.5153,162.2861L110.5924,232L70,232L88.075,104.18902L78.92295,95L137.57760000000002,95Z"
          fill="#FFB0B0"
          fill-opacity="1"
        />
      </g>
      <g style="mix-blend-mode: passthrough">
        <path
          d="M124.5776,82L149.4499,167.92520000000002L196.598,82L244,82L225.925,219L185.345,219L196.598,146.8714L160.702,209.798L124.5776,209.798L106.5153,149.2861L97.5924,219L57,219L75.075,91.18902L65.92295,82L124.5776,82Z"
          fill="#E23D3E"
          fill-opacity="1"
        />
      </g>
    </g>
  </g>
</svg>
